<svg width="353" height="173" viewBox="0 0 353 173" fill="none" xmlns="http://www.w3.org/2000/svg">
<path d="M42.148 84.3267L73.0893 77.4298L63.9534 108.528L33.0121 115.423L42.148 84.3267ZM96.9623 57.3225C79.4954 61.2146 62.0295 65.1088 44.5615 69.0009C35.8275 70.9475 27.0936 72.8941 18.3617 74.8406C17.4415 78.0259 16.5214 81.2396 15.6034 84.4828C14.625 87.6807 13.6785 90.8723 12.7583 94.0575L23.359 91.6952L22.0666 96.1961L11.3791 98.5784L9.82759 103.91L20.515 101.528L19.1348 106.048L8.5341 108.412L7.49972 111.993L6.98254 113.743L17.5833 111.381L16.2908 115.881L5.68905 118.244C4.7139 121.5 3.7652 124.72 2.84505 127.906C1.92596 131.091 0.977259 134.283 0 137.481C23.9608 132.141 47.9206 126.801 71.8793 121.461C73.7757 121.037 75.5853 119.975 77.3092 118.272C79.0332 116.57 80.1818 114.738 80.7572 112.775C86.1575 94.2632 91.5588 75.7775 96.9591 57.3214L96.9623 57.3225ZM158.206 58.3743L155.879 66.3727L124.938 73.2686L127.265 65.2702L158.206 58.3743ZM110.201 54.3715C108.247 54.8061 106.451 55.8665 104.814 57.5493C103.176 59.2321 102.014 61.069 101.324 63.0556L97.8761 75.0875L108.478 72.7242L107.184 77.2251L96.4969 79.6074L94.9454 84.9407L105.633 82.5584L104.253 87.0793L93.6519 89.4416L92.1003 94.7749L102.702 92.4116L101.409 96.9135L90.7212 99.2958L87.2733 111.327C86.699 113.347 86.8566 114.902 87.7471 115.993C88.6376 117.085 90.0305 117.419 91.9269 116.997L113.473 112.194C114.68 108.201 115.857 104.24 117.007 100.315C118.099 96.577 119.19 92.8368 120.281 89.0955L133.641 86.1192L144.5 105.278L156.997 102.493C158.951 102.058 160.818 100.925 162.6 99.0943L152.861 81.8346L163.721 79.4143C165.617 78.9923 167.427 77.914 169.15 76.1837C170.873 74.4534 172.023 72.606 172.598 70.6436L182.078 38.3525C158.119 43.6922 134.158 49.0329 110.2 54.3736L110.201 54.3715ZM243.583 39.4308L241.256 47.3437L210.315 54.2396L212.642 46.3277L243.583 39.4308ZM195.662 35.3234C193.709 35.7592 191.899 36.8206 190.233 38.5108C188.567 40.201 187.418 42.0621 186.784 44.0941L183.252 56.0585L193.853 53.6962L192.56 58.1971L181.958 60.5594L180.407 65.8927L191.008 63.5304L189.715 68.0313L179.028 70.4136L177.992 73.9955L177.476 75.7448L188.164 73.3625L186.783 77.8834L176.183 80.2457L172.65 92.2955C172.133 94.3033 172.319 95.8521 173.21 96.9431C174.101 98.034 175.465 98.3758 177.303 97.9654L198.935 93.1438L205.916 69.406L236.857 62.5102L229.877 86.2469L242.374 83.4615C244.27 83.0395 246.08 81.9771 247.804 80.2753C249.527 78.5713 250.676 76.7398 251.251 74.7773C256.71 56.2516 262.14 37.7596 267.541 19.3034C243.581 24.6431 219.62 29.9838 195.661 35.3245L195.662 35.3234ZM281.124 16.2765C279.17 16.7111 277.375 17.7704 275.737 19.4543C274.1 21.1371 272.937 23.0014 272.248 25.0461L268.8 36.9915L279.401 34.6292L278.107 39.1301L267.42 41.5124L265.868 46.8457L276.47 44.4824L275.177 48.9833L264.576 51.3466L263.541 54.9306L263.024 56.6799L273.625 54.3166L272.332 58.8175L261.644 61.1998L258.197 73.2306C257.623 75.2511 257.781 76.8073 258.67 77.8972C259.562 78.9891 260.954 79.3236 262.85 78.9005L327.921 64.3987C329.76 63.9883 331.555 62.929 333.308 61.2209C335.06 59.5117 336.224 57.6759 336.797 55.7135L346.02 23.9974L307.494 32.5845L303.099 47.7499L322.318 43.4664L319.992 51.4658L289.05 58.3617L298.187 27.2659C309.333 24.7813 320.481 22.2966 331.626 19.813C337.2 18.5712 342.801 17.3231 348.432 16.0676C349.926 10.8049 351.448 5.53596 353 0.261719C329.04 5.60137 305.08 10.941 281.121 16.2828L281.124 16.2765Z" fill="white"/>
<path d="M193.169 120.527L224.111 113.631L215.061 144.708L184.035 151.624L193.17 120.528L193.169 120.527ZM176.191 109.524C174.294 109.947 172.5 110.992 170.804 112.659C169.109 114.327 167.945 116.205 167.314 118.295L163.781 130.26L174.382 127.897L173.089 132.398L162.488 134.76L160.936 140.093L171.537 137.731L170.159 142.252L159.558 144.614L158.007 149.947L168.607 147.584L167.314 152.085L156.713 154.447L153.18 166.498L157.834 172.167L222.906 157.665C224.745 157.255 226.525 156.213 228.249 154.54C229.972 152.867 231.151 151.014 231.782 148.98L248.071 93.5071L176.192 109.527L176.191 109.524ZM314.321 78.7373L303.288 116.19L285.793 85.0962L261.661 90.4749C259.822 90.8853 258.055 91.9235 256.361 93.5915C254.666 95.2595 253.472 97.1439 252.784 99.2456L249.336 111.191L259.937 108.829L258.644 113.33L247.957 115.712L246.405 121.045L257.093 118.663L255.715 123.183L245.113 125.546L243.561 130.877L254.162 128.515L252.87 133.016L242.182 135.398L238.734 147.43L243.389 153.099L264.935 148.296L276.829 107.73L295.963 141.382L308.46 138.597C310.358 138.174 312.151 137.115 313.847 135.419C315.542 133.724 316.706 131.887 317.337 129.912L333.54 74.458L314.32 78.7405L314.321 78.7373Z" fill="white"/>
<path fill-rule="evenodd" clip-rule="evenodd" d="M129.8 19.9312L124.103 21.1129L125.681 15.1845C125.811 14.6971 125.584 14.5145 125.001 14.6359C124.39 14.7625 124.02 15.0695 123.891 15.5569L118.357 36.349C118.227 36.8364 118.468 37.0168 119.078 36.8902C119.662 36.7689 120.019 36.465 120.15 35.9723L122.126 28.5468L127.823 27.3662L125.788 35.0133C125.409 36.4376 124.439 37.7205 122.879 38.8621C121.323 39.9974 119.709 40.737 118.033 41.0841C113.199 42.0874 111.257 40.7855 112.216 37.1835L117.364 17.8443C118.4 13.9501 121.341 11.5002 126.175 10.4979C130.508 9.59902 132.199 10.9263 131.255 14.4776L129.802 19.9333L129.8 19.9312ZM140.066 36.2719L128.349 38.7007L136.352 8.62836L142.618 7.32853L135.643 33.5351L141.095 32.4052L140.066 36.2719ZM151.326 5.52438L157.592 4.22455L150.879 29.4426C150.72 30.0439 150.993 30.2708 151.691 30.1262C152.376 29.9838 152.796 29.6135 152.956 29.011L159.668 3.79408L165.934 2.49425L159.311 27.3757C158.85 29.1092 157.809 30.5894 156.192 31.8249C154.576 33.0593 152.702 33.8949 150.572 34.3359C148.592 34.7463 146.997 34.6704 145.771 34.1207C144.546 33.5699 144.188 32.345 144.692 30.447L151.326 5.52227V5.52438ZM161.558 31.8154L169.562 1.74305L176.941 0.213214C178.704 -0.152892 180.124 -0.0473858 181.195 0.528676C182.271 1.10368 182.562 2.32228 182.069 4.17601L180.959 8.34877C180.396 10.4621 178.781 12.1966 176.115 13.5681C178.506 13.7085 179.403 14.888 178.811 17.1153L177.257 22.9508C176.729 24.9343 175.722 26.5496 174.233 27.7861C172.743 29.0279 171.147 29.8255 169.452 30.1779L161.557 31.8143L161.558 31.8154ZM174.766 10.6425L176.129 5.52332C176.409 4.47143 175.966 4.0684 174.799 4.31001L172.592 12.6017C173.758 12.3601 174.482 11.7091 174.766 10.6425ZM171.027 24.6906L173.053 17.0794C173.332 16.0275 172.889 15.6245 171.722 15.8671L168.852 26.6498C170.018 26.4082 170.743 25.7583 171.027 24.6906ZM23.3598 59.6183L31.3629 29.546L39.162 27.9285C40.8574 27.5762 42.2408 27.7502 43.31 28.4487C44.374 29.1419 44.6405 30.5008 44.1054 32.5128L39.2603 50.7136C38.7611 52.5884 37.7564 54.17 36.2376 55.473C34.7199 56.7686 33.0425 57.6105 31.1979 57.9924L23.3577 59.6183H23.3598ZM32.8701 52.485L37.9721 33.3178C38.2513 32.2659 37.7944 31.866 36.6004 32.114L30.6554 54.4538C31.8484 54.2058 32.5866 53.5528 32.8701 52.485ZM56.7072 52.7446L50.4745 54.037C50.0303 53.3238 50.3359 50.9742 51.3968 46.9861L51.4084 46.9428L51.9224 45.1302C52.6236 42.6181 52.9758 41.3405 52.9917 41.2835C53.2645 40.2601 52.7632 39.8834 51.4867 40.1472L47.6453 54.5825L41.3788 55.8802L49.3841 25.8079L57.1069 24.2063C58.8711 23.8402 60.2894 23.952 61.3639 24.5334C62.4459 25.1147 62.7389 26.3259 62.2492 28.1659L61.2878 31.7742C60.667 34.1101 58.9599 35.9512 56.1561 37.3112C58.5686 37.4199 59.4158 38.8136 58.704 41.4839L57.7458 44.7947C56.465 49.6058 56.1181 52.2561 56.7072 52.7414V52.7446ZM54.796 34.5037L56.1128 29.5554C56.393 28.5036 55.8938 28.1132 54.6194 28.3769L52.4597 36.4967C53.7341 36.2319 54.5126 35.5703 54.796 34.5037ZM66.1117 50.7537L59.8452 52.0535L67.8505 21.9812L74.1159 20.6813L66.1128 50.7537H66.1117ZM93.6526 16.631L81.7975 47.502L72.9208 49.342L77.0921 20.0641L83.2095 18.796L79.7796 39.3612L87.5352 17.8981L93.6526 16.6299V16.631ZM101.037 43.5128L88.7896 46.0523L96.7949 15.979L108.961 13.4574L107.932 17.3242L102.031 18.547L99.8716 26.6667L105.194 25.5631L104.222 29.2157L98.8996 30.3193L96.0863 40.8868L102.066 39.6471L101.038 43.5139L101.037 43.5128Z" fill="white"/>
</svg>
